<svg width="198" height="15" viewBox="0 0 198 15" fill="none" xmlns="http://www.w3.org/2000/svg">
<path d="M0.242188 0.176711H7.87612C8.8089 0.176711 9.61954 0.273741 10.308 0.467677C11.003 0.655785 11.579 0.917363 12.036 1.25247C12.4931 1.58752 12.8313 1.98723 13.0511 2.45161C13.2761 2.9101 13.3893 3.40685 13.3893 3.94172C13.3893 4.8176 13.1025 5.58472 12.5298 6.2431C13.188 6.61932 13.6785 7.10719 14.0019 7.7068C14.3246 8.30634 14.486 8.98821 14.486 9.75242C14.486 10.3931 14.3735 10.9722 14.1478 11.4894C13.9286 12.0067 13.5905 12.4505 13.1328 12.8209C12.6821 13.1853 12.1093 13.4675 11.4144 13.6674C10.7253 13.8613 9.91205 13.9583 8.97347 13.9583H0.242188V0.176711ZM8.99147 5.46717C9.24154 5.46717 9.48519 5.47598 9.72305 5.49358C10.1313 5.11743 10.3357 4.68826 10.3357 4.20628C10.3357 3.70662 10.1313 3.3216 9.72305 3.05122C9.32062 2.77494 8.72919 2.63681 7.9494 2.63681H3.14019V5.46717H8.99147ZM9.04612 11.5247C9.82654 11.5247 10.418 11.3631 10.8198 11.0397C11.2286 10.7165 11.4324 10.2609 11.4324 9.67307C11.4324 9.08524 11.2286 8.62675 10.8198 8.29753C10.418 7.96837 9.82654 7.80377 9.04612 7.80377H3.14019V11.5247H9.04612ZM16.5026 0.176711H19.4193V13.9583H16.5026V0.176711ZM21.6918 6.98375C21.6918 6.00211 21.8833 5.08804 22.2678 4.24155C22.6515 3.38918 23.2063 2.6515 23.9315 2.0284C24.663 1.39941 25.5528 0.905644 26.6013 0.547036C27.6555 0.18849 28.8468 0.00918541 30.1755 0.00918541C31.3398 0.00918541 32.4063 0.123825 33.3757 0.353101C34.3509 0.576425 35.2561 0.920338 36.0911 1.38472L34.7559 3.5009C34.5065 3.34218 34.2165 3.20107 33.8874 3.07763C33.5647 2.95419 33.2169 2.85133 32.8453 2.76905C32.4795 2.68089 32.099 2.61325 31.7023 2.56625C31.3121 2.51919 30.9251 2.4957 30.5413 2.4957C29.615 2.4957 28.7889 2.60736 28.0638 2.83074C27.3386 3.04824 26.726 3.35688 26.2265 3.75659C25.7328 4.15041 25.3548 4.62366 25.0925 5.1762C24.8366 5.72286 24.7087 6.32537 24.7087 6.98375C24.7087 7.66563 24.8424 8.29164 25.1105 8.86186C25.3792 9.43207 25.7662 9.92584 26.2721 10.3432C26.7838 10.7547 27.4055 11.078 28.137 11.3131C28.8744 11.5424 29.7063 11.6569 30.6326 11.6569C31.0537 11.6569 31.4709 11.6276 31.8855 11.5688C32.2995 11.51 32.6988 11.4306 33.0832 11.3307C33.4728 11.2249 33.8482 11.1015 34.2075 10.9604C34.5669 10.8134 34.9025 10.6547 35.213 10.4843L36.5482 12.6004C35.7678 13.0824 34.8658 13.4616 33.8418 13.7378C32.8177 14.0083 31.73 14.1435 30.578 14.1435C29.109 14.1435 27.8201 13.9612 26.7105 13.5968C25.6016 13.2265 24.6753 12.7209 23.9315 12.0802C23.1877 11.4336 22.6271 10.6753 22.2491 9.80531C21.8775 8.92944 21.6918 7.98896 21.6918 6.98375ZM39.1768 0.176711H42.0748V3.7742H50.9617V0.176711H53.8687V13.9583H50.9617V6.16374H42.0748V13.9583H39.1768V0.176711ZM57.0007 0.176711H59.9173V13.9583H57.0007V0.176711ZM63.0397 0.176711H65.9383L74.8425 4.67357V0.176711H77.7412V13.9583H74.8425V7.63624L65.9383 3.16579V13.9583H63.0397V0.176711ZM81.2113 0.176711H84.1093V3.7742H92.9955V0.176711H95.9032V13.9583H92.9955V6.16374H84.1093V13.9583H81.2113V0.176711ZM98.5595 7.02783C98.5595 5.98741 98.7575 5.03509 99.1535 4.171C99.5501 3.3069 100.104 2.56625 100.818 1.94904C101.537 1.32594 102.396 0.843893 103.396 0.502955C104.401 0.162017 105.514 -0.00842285 106.733 -0.00842285C107.946 -0.00842285 109.055 0.162017 110.061 0.502955C111.066 0.843893 111.926 1.32594 112.639 1.94904C113.358 2.56625 113.915 3.3069 114.312 4.171C114.708 5.03509 114.906 5.98741 114.906 7.02783C114.906 8.07415 114.708 9.03527 114.312 9.91114C113.915 10.7811 113.358 11.5306 112.639 12.1596C111.926 12.7885 111.066 13.2794 110.061 13.6321C109.055 13.9789 107.946 14.1523 106.733 14.1523C105.514 14.1523 104.401 13.9789 103.396 13.6321C102.396 13.2794 101.537 12.7885 100.818 12.1596C100.104 11.5306 99.5501 10.7811 99.1535 9.91114C98.7575 9.03527 98.5595 8.07415 98.5595 7.02783ZM101.457 7.02783C101.457 7.7391 101.589 8.37981 101.851 8.95002C102.119 9.52023 102.487 10.0081 102.957 10.4137C103.432 10.8134 103.99 11.1221 104.63 11.3396C105.276 11.5571 105.977 11.6658 106.733 11.6658C107.489 11.6658 108.186 11.5571 108.827 11.3396C109.473 11.1221 110.03 10.8134 110.499 10.4137C110.969 10.0081 111.338 9.52023 111.606 8.95002C111.874 8.37981 112.008 7.7391 112.008 7.02783C112.008 6.31657 111.874 5.67878 111.606 5.11445C111.338 4.55013 110.969 4.07403 110.499 3.68603C110.03 3.29221 109.473 2.99244 108.827 2.78666C108.186 2.58095 107.489 2.47809 106.733 2.47809C105.977 2.47809 105.276 2.58095 104.63 2.78666C103.99 2.99244 103.432 3.29221 102.957 3.68603C102.487 4.07403 102.119 4.55013 101.851 5.11445C101.589 5.67878 101.457 6.31657 101.457 7.02783ZM118.23 9.8582C118.748 10.1404 119.272 10.396 119.803 10.6253C120.339 10.8487 120.894 11.0397 121.466 11.1985C122.039 11.3513 122.64 11.4688 123.268 11.5512C123.902 11.6334 124.575 11.6746 125.288 11.6746C126.147 11.6746 126.879 11.6217 127.482 11.5159C128.085 11.4042 128.576 11.2543 128.954 11.0662C129.338 10.8722 129.615 10.643 129.786 10.3784C129.962 10.1139 130.051 9.82589 130.051 9.51435C130.051 9.01469 129.834 8.62086 129.402 8.33281C128.969 8.03887 128.302 7.89193 127.4 7.89193C127.003 7.89193 126.586 7.9184 126.147 7.97129C125.709 8.01835 125.264 8.07123 124.812 8.13001C124.368 8.18878 123.925 8.24465 123.487 8.29753C123.054 8.34459 122.645 8.36809 122.262 8.36809C121.622 8.36809 121.006 8.28873 120.415 8.13001C119.83 7.97129 119.309 7.73321 118.852 7.41583C118.401 7.09839 118.041 6.70159 117.773 6.22543C117.504 5.74933 117.371 5.19381 117.371 4.55899C117.371 4.18278 117.422 3.80948 117.526 3.43915C117.636 3.06882 117.807 2.71611 118.038 2.38106C118.276 2.04012 118.581 1.72566 118.952 1.4376C119.324 1.14372 119.772 0.890951 120.296 0.679345C120.826 0.467677 121.436 0.303127 122.125 0.185575C122.82 0.0621335 123.608 0.000382462 124.492 0.000382462C125.133 0.000382462 125.775 0.0356605 126.422 0.106217C127.068 0.170883 127.696 0.264873 128.305 0.388315C128.92 0.511819 129.512 0.661675 130.079 0.838065C130.645 1.0085 131.172 1.19953 131.66 1.41119L130.389 3.66843C129.987 3.49793 129.554 3.34218 129.091 3.20107C128.628 3.05413 128.143 2.92777 127.637 2.82194C127.132 2.71611 126.607 2.63383 126.065 2.57506C125.529 2.51039 124.98 2.47809 124.419 2.47809C123.621 2.47809 122.962 2.53389 122.445 2.64561C121.932 2.75727 121.524 2.9013 121.22 3.07763C120.915 3.24813 120.701 3.44213 120.579 3.65962C120.464 3.87123 120.406 4.08283 120.406 4.29444C120.406 4.70593 120.598 5.0439 120.982 5.30845C121.365 5.56712 121.951 5.69638 122.737 5.69638C123.054 5.69638 123.417 5.67586 123.825 5.6347C124.24 5.58764 124.672 5.53773 125.124 5.48478C125.581 5.43189 126.044 5.38484 126.513 5.34373C126.989 5.29667 127.449 5.27317 127.894 5.27317C128.735 5.27317 129.478 5.36431 130.124 5.54653C130.776 5.72875 131.322 5.99033 131.76 6.33127C132.2 6.66631 132.532 7.07489 132.758 7.55688C132.983 8.03304 133.096 8.56791 133.096 9.16163C133.096 9.95523 132.903 10.6635 132.52 11.2866C132.142 11.9038 131.599 12.427 130.892 12.8561C130.191 13.2794 129.344 13.6027 128.351 13.826C127.357 14.0435 126.251 14.1523 125.032 14.1523C124.227 14.1523 123.441 14.1023 122.673 14.0024C121.905 13.9083 121.167 13.7731 120.461 13.5968C119.76 13.4146 119.089 13.2 118.449 12.9531C117.816 12.7003 117.227 12.4241 116.685 12.1243L118.23 9.8582ZM141.38 0.176711H146.618C148.148 0.176711 149.477 0.33543 150.605 0.65287C151.732 0.97031 152.664 1.42589 153.402 2.01954C154.145 2.60736 154.697 3.32451 155.057 4.171C155.423 5.01159 155.605 5.95802 155.605 7.01023C155.605 8.00948 155.425 8.93533 155.066 9.7877C154.707 10.6341 154.158 11.369 153.42 11.9921C152.683 12.6093 151.75 13.0942 150.623 13.4469C149.495 13.7937 148.166 13.9671 146.637 13.9671L141.38 13.9583V0.176711ZM147.331 11.5424C148.197 11.5424 148.956 11.4365 149.608 11.2249C150.26 11.0074 150.803 10.7018 151.235 10.3079C151.674 9.91406 152.003 9.4379 152.223 8.87946C152.442 8.32103 152.552 7.69793 152.552 7.01023C152.552 6.33418 152.442 5.72577 152.223 5.18501C152.003 4.63836 151.674 4.17689 151.235 3.80067C150.803 3.41857 150.26 3.12469 149.608 2.91891C148.956 2.71319 148.197 2.61033 147.331 2.61033H144.278V11.5424H147.331ZM162.824 0.176711H165.896L172.808 13.9583H169.763L168.62 11.6393H160.273L159.167 13.9583H156.113L162.824 0.176711ZM167.478 9.33802L164.387 3.07763L161.379 9.33802H167.478ZM184.428 2.62794H179.153V0.176711H192.602V2.62794H187.326V13.9583H184.428V2.62794ZM194.774 0.176711H197.69V13.9583H194.774V0.176711Z" fill="black"/>
</svg>
