<svg width="396" height="400" viewBox="0 0 396 400" fill="none" xmlns="http://www.w3.org/2000/svg">
<path d="M373.144 227.933C360.591 214.041 343.753 203.575 322.679 196.515C315.149 198.488 307.63 200.462 300.111 202.474C294.883 203.869 289.734 205.52 284.664 207.285C281.019 208.556 278.376 210.701 277.692 214.24C277.248 216.499 275.767 218.396 273.603 219.867C268.932 223.036 261.527 221.357 259.124 216.745C256.891 212.456 258.417 208.651 261.812 206.469C264.147 204.97 266.756 204.979 269.433 205.074C277.419 205.349 283.457 202.455 287.751 197.018C290.018 194.152 288.777 190.632 284.676 189.332C279.594 187.728 274.298 186.533 269.001 185.527C264.774 184.72 260.684 185.811 256.845 187.339C253.542 188.658 250.284 188.924 247.185 187.083C243.881 185.129 241.979 182.481 242.309 178.998C242.651 175.421 245.339 173.201 249.087 172.053C252.881 170.886 256.378 171.872 259.055 174.368C262.575 177.642 266.722 180.09 271.951 180.773C276.838 181.408 281.805 181.655 286.749 181.912C289.152 182.035 290.599 180.479 291.51 178.951C292.262 177.699 292.718 176.104 292.536 174.738C292.046 171.246 290.747 167.878 288.309 164.974C286.806 163.2 284.436 162.298 281.919 161.672C278.547 160.837 275.949 159.242 275.004 156.216C274.013 153.094 275.642 149.564 278.706 147.524C282.101 145.275 285.655 145.503 289.13 146.964C292.775 148.511 294.279 151.158 294.131 154.659C293.743 163.598 297.343 171.199 305.5 177.205C309.715 180.308 314.283 182.756 319.785 183.99C323.829 184.901 327.714 184.673 331.371 183.6C344.54 176.977 355.522 168.532 364.304 158.246C377.656 142.58 384.354 124.362 384.354 103.59C384.354 71.5083 369.761 46.2202 340.507 27.7171C311.298 9.25168 271.734 0.00948889 221.884 0.00948889H218.546C214.467 3.82402 210.435 7.67653 206.505 11.5954C197.642 20.4201 191.217 30.8294 187.902 42.0453C187.845 42.2352 187.811 42.4154 187.753 42.6053C187.48 44.1992 187.195 45.7176 186.854 47.0933C184.564 56.383 187.56 57.5596 197.266 62.5317C203.315 65.6251 209.524 68.6428 214.98 72.3814C226.201 80.0768 232.41 90.135 233.036 102.376C233.195 105.564 231.772 107.86 227.784 108.904C221.792 110.488 218.785 114.066 216.723 119.067C210.788 133.452 198.975 143.596 182.24 149.649C179.404 150.674 177.945 151.955 177.82 154.526C177.535 160.438 177.091 166.35 176.726 172.261C176.681 172.907 176.715 173.561 176.647 174.206C176.203 178.828 174.596 179.71 169.618 177.48C163.478 174.738 157.565 171.635 151.528 168.741C150.616 168.305 149.158 167.65 148.634 167.944C147.825 168.39 147.29 169.557 147.21 170.449C147.016 172.66 147.256 174.899 147.107 177.11C146.823 181.418 144.989 182.301 140.181 180.574C129.883 176.873 120.621 171.834 112.283 165.591C94.3747 152.183 82.7322 135.435 75.4188 116.581C72.115 108.078 69.2441 99.3394 67.7292 90.524C65.9747 80.3236 65.4507 69.9144 65.28 59.5903C65.1089 49.0954 66.6927 41.2291 66.0659 30.744C66.3509 30.5637 65.6102 27.736 65.8952 27.5558C66.0319 20.0216 64.0836 9.11883 63.0816 0H50.5616C34.6929 0.00948889 22.458 3.59629 13.8458 10.7699C5.23352 17.9435 0.950195 28.1346 0.950195 41.3527V357.902C0.950195 371.111 5.23352 381.311 13.8458 388.485C22.458 395.659 34.6929 399.245 50.5616 399.245H101.346C103.318 391.493 107.259 384.053 113.092 376.937C118.582 370.247 125.52 364.734 132.856 359.506C136.137 357.171 139.259 354.647 142.164 351.991C143.838 350.453 145.16 348.575 146.242 346.686C148.247 343.156 148.406 339.475 145.513 336.239C142.175 332.51 138.495 328.99 134.884 325.44C134.486 325.052 133.563 324.9 132.879 324.871C119.072 324.35 105.618 322.205 92.4836 318.732C87.0385 317.29 81.5363 315.752 76.5008 313.541C69.6887 310.543 65.8952 305.647 66.4649 298.9C66.5216 298.283 66.5443 297.648 66.7266 297.05C68.1165 292.505 68.2304 293.036 72.7302 292.903C88.28 292.467 103.181 289.772 117.181 283.927C120.063 282.722 121.59 281.146 122.49 278.499C127.616 263.488 137.447 251.095 152.906 242.043C166.166 234.271 181.032 230.893 197.175 230.96C213.044 231.026 228.229 233.294 242.024 240.183C256.594 247.451 265.993 258.06 269.878 271.762C275.494 291.613 271.073 309.993 257.062 326.76C255.239 328.942 253.587 331.267 252.198 333.658C249.497 338.317 250.887 342.558 255.888 345.661C260.24 348.366 265.275 349.723 270.504 350.567C286.27 353.12 302.003 352.285 317.723 350.169C333.854 347.996 349.506 344.362 364.384 338.763C372.415 335.745 380.094 332.074 387.977 328.771C393.274 317.072 395.94 304.138 395.94 289.952C395.94 265.414 388.33 244.728 373.144 227.933Z" fill="#F86B01" fill-opacity="0.5"/>
</svg>
