<svg width="400" height="400" viewBox="0 0 400 400" fill="none" xmlns="http://www.w3.org/2000/svg">
<path d="M374.144 227.933C361.591 214.041 344.753 203.575 323.679 196.515C316.149 198.488 308.63 200.462 301.111 202.474C295.883 203.869 290.734 205.52 285.664 207.285C282.019 208.556 279.376 210.701 278.692 214.24C278.248 216.499 276.767 218.396 274.603 219.867C269.932 223.036 262.527 221.357 260.124 216.745C257.891 212.456 259.417 208.651 262.812 206.469C265.147 204.97 267.756 204.979 270.433 205.074C278.419 205.349 284.457 202.455 288.751 197.018C291.018 194.152 289.777 190.632 285.676 189.332C280.594 187.728 275.298 186.533 270.001 185.527C265.774 184.72 261.684 185.811 257.845 187.339C254.542 188.658 251.284 188.924 248.185 187.083C244.881 185.129 242.979 182.481 243.309 178.998C243.651 175.421 246.339 173.201 250.087 172.053C253.881 170.886 257.378 171.872 260.055 174.368C263.575 177.642 267.722 180.09 272.951 180.773C277.838 181.408 282.805 181.655 287.749 181.912C290.152 182.035 291.599 180.479 292.51 178.951C293.262 177.699 293.718 176.104 293.536 174.738C293.046 171.246 291.747 167.878 289.309 164.974C287.806 163.2 285.436 162.298 282.919 161.672C279.547 160.837 276.949 159.242 276.004 156.216C275.013 153.094 276.642 149.564 279.706 147.524C283.101 145.275 286.655 145.503 290.13 146.964C293.775 148.511 295.279 151.158 295.131 154.659C294.743 163.598 298.343 171.199 306.5 177.205C310.715 180.308 315.283 182.756 320.785 183.99C324.829 184.901 328.714 184.673 332.371 183.6C345.54 176.977 356.522 168.532 365.304 158.246C378.656 142.58 385.354 124.362 385.354 103.59C385.354 71.5083 370.761 46.2202 341.507 27.7171C312.298 9.25168 272.734 0.00948889 222.884 0.00948889H219.546C215.467 3.82402 211.435 7.67653 207.505 11.5954C198.642 20.4201 192.217 30.8294 188.902 42.0453C188.845 42.2352 188.811 42.4154 188.753 42.6053C188.48 44.1992 188.195 45.7176 187.854 47.0933C185.564 56.383 188.56 57.5596 198.266 62.5317C204.315 65.6251 210.524 68.6428 215.98 72.3814C227.201 80.0768 233.41 90.135 234.036 102.376C234.195 105.564 232.772 107.86 228.784 108.904C222.792 110.488 219.785 114.066 217.723 119.067C211.788 133.452 199.975 143.596 183.24 149.649C180.404 150.674 178.945 151.955 178.82 154.526C178.535 160.438 178.091 166.35 177.726 172.261C177.681 172.907 177.715 173.561 177.647 174.206C177.203 178.828 175.596 179.71 170.618 177.48C164.478 174.738 158.565 171.635 152.528 168.741C151.616 168.305 150.158 167.65 149.634 167.944C148.825 168.39 148.29 169.557 148.21 170.449C148.016 172.66 148.256 174.899 148.107 177.11C147.823 181.418 145.989 182.301 141.181 180.574C130.883 176.873 121.621 171.834 113.283 165.591C95.3747 152.183 83.7322 135.435 76.4188 116.581C73.115 108.078 70.2441 99.3394 68.7292 90.524C66.9747 80.3236 66.4507 69.9144 66.28 59.5903C66.1089 49.0954 67.6927 41.2291 67.0659 30.744C67.3509 30.5637 66.6102 27.736 66.8952 27.5558C67.0319 20.0216 65.0836 9.11883 64.0816 0H51.5616C35.6929 0.00948889 23.458 3.59629 14.8458 10.7699C6.23352 17.9435 1.9502 28.1346 1.9502 41.3527V357.902C1.9502 371.111 6.23352 381.311 14.8458 388.485C23.458 395.659 35.6929 399.245 51.5616 399.245H102.346C104.318 391.493 108.259 384.053 114.092 376.937C119.582 370.247 126.52 364.734 133.856 359.506C137.137 357.171 140.259 354.647 143.164 351.991C144.838 350.453 146.16 348.575 147.242 346.686C149.247 343.156 149.406 339.475 146.513 336.239C143.175 332.51 139.495 328.99 135.884 325.44C135.486 325.052 134.563 324.9 133.879 324.871C120.072 324.35 106.618 322.205 93.4836 318.732C88.0385 317.29 82.5363 315.752 77.5008 313.541C70.6887 310.543 66.8952 305.647 67.4649 298.9C67.5216 298.283 67.5443 297.648 67.7266 297.05C69.1165 292.505 69.2304 293.036 73.7302 292.903C89.28 292.467 104.181 289.772 118.181 283.927C121.063 282.722 122.59 281.146 123.49 278.499C128.616 263.488 138.447 251.095 153.906 242.043C167.166 234.271 182.032 230.893 198.175 230.96C214.044 231.026 229.229 233.294 243.024 240.183C257.594 247.451 266.993 258.06 270.878 271.762C276.494 291.613 272.073 309.993 258.062 326.76C256.239 328.942 254.587 331.267 253.198 333.658C250.497 338.317 251.887 342.558 256.888 345.661C261.24 348.366 266.275 349.723 271.504 350.567C287.27 353.12 303.003 352.285 318.723 350.169C334.854 347.996 350.506 344.362 365.384 338.763C373.415 335.745 381.094 332.074 388.977 328.771C394.274 317.072 396.94 304.138 396.94 289.952C396.94 265.414 389.33 244.728 374.144 227.933Z" fill="#F86B01" fill-opacity="0.2"/>
<path d="M374.144 227.933C361.591 214.041 344.753 203.575 323.679 196.515C316.149 198.488 308.63 200.462 301.111 202.474C295.883 203.869 290.734 205.52 285.664 207.285C282.019 208.556 279.376 210.701 278.692 214.24C278.248 216.499 276.767 218.396 274.603 219.867C269.932 223.036 262.527 221.357 260.124 216.745C257.891 212.456 259.417 208.651 262.812 206.469C265.147 204.97 267.756 204.979 270.433 205.074C278.419 205.349 284.457 202.455 288.751 197.018C291.018 194.152 289.777 190.632 285.676 189.332C280.594 187.728 275.298 186.533 270.001 185.527C265.774 184.72 261.684 185.811 257.845 187.339C254.542 188.658 251.284 188.924 248.185 187.083C244.881 185.129 242.979 182.481 243.309 178.998C243.651 175.421 246.339 173.201 250.087 172.053C253.881 170.886 257.378 171.872 260.055 174.368C263.575 177.642 267.722 180.09 272.951 180.773C277.838 181.408 282.805 181.655 287.749 181.912C290.152 182.035 291.599 180.479 292.51 178.951C293.262 177.699 293.718 176.104 293.536 174.738C293.046 171.246 291.747 167.878 289.309 164.974C287.806 163.2 285.436 162.298 282.919 161.672C279.547 160.837 276.949 159.242 276.004 156.216C275.013 153.094 276.642 149.564 279.706 147.524C283.101 145.275 286.655 145.503 290.13 146.964C293.775 148.511 295.279 151.158 295.131 154.659C294.743 163.598 298.343 171.199 306.5 177.205C310.715 180.308 315.283 182.756 320.785 183.99C324.829 184.901 328.714 184.673 332.371 183.6C345.54 176.977 356.522 168.532 365.304 158.246C378.656 142.58 385.354 124.362 385.354 103.59C385.354 71.5083 370.761 46.2202 341.507 27.7171C312.298 9.25168 272.734 0.00948889 222.884 0.00948889H219.546C215.467 3.82402 211.435 7.67653 207.505 11.5954C198.642 20.4201 192.217 30.8294 188.902 42.0453C188.845 42.2352 188.811 42.4154 188.753 42.6053C188.48 44.1992 188.195 45.7176 187.854 47.0933C185.564 56.383 188.56 57.5596 198.266 62.5317C204.315 65.6251 210.524 68.6428 215.98 72.3814C227.201 80.0768 233.41 90.135 234.036 102.376C234.195 105.564 232.772 107.86 228.784 108.904C222.792 110.488 219.785 114.066 217.723 119.067C211.788 133.452 199.975 143.596 183.24 149.649C180.404 150.674 178.945 151.955 178.82 154.526C178.535 160.438 178.091 166.35 177.726 172.261C177.681 172.907 177.715 173.561 177.647 174.206C177.203 178.828 175.596 179.71 170.618 177.48C164.478 174.738 158.565 171.635 152.528 168.741C151.616 168.305 150.158 167.65 149.634 167.944C148.825 168.39 148.29 169.557 148.21 170.449C148.016 172.66 148.256 174.899 148.107 177.11C147.823 181.418 145.989 182.301 141.181 180.574C130.883 176.873 121.621 171.834 113.283 165.591C95.3747 152.183 83.7322 135.435 76.4188 116.581C73.115 108.078 70.2441 99.3394 68.7292 90.524C66.9747 80.3236 66.4507 69.9144 66.28 59.5903C66.1089 49.0954 67.6927 41.2291 67.0659 30.744C67.3509 30.5637 66.6102 27.736 66.8952 27.5558C67.0319 20.0216 65.0836 9.11883 64.0816 0H51.5616C35.6929 0.00948889 23.458 3.59629 14.8458 10.7699C6.23352 17.9435 1.9502 28.1346 1.9502 41.3527V357.902C1.9502 371.111 6.23352 381.311 14.8458 388.485C23.458 395.659 35.6929 399.245 51.5616 399.245H102.346C104.318 391.493 108.259 384.053 114.092 376.937C119.582 370.247 126.52 364.734 133.856 359.506C137.137 357.171 140.259 354.647 143.164 351.991C144.838 350.453 146.16 348.575 147.242 346.686C149.247 343.156 149.406 339.475 146.513 336.239C143.175 332.51 139.495 328.99 135.884 325.44C135.486 325.052 134.563 324.9 133.879 324.871C120.072 324.35 106.618 322.205 93.4836 318.732C88.0385 317.29 82.5363 315.752 77.5008 313.541C70.6887 310.543 66.8952 305.647 67.4649 298.9C67.5216 298.283 67.5443 297.648 67.7266 297.05C69.1165 292.505 69.2304 293.036 73.7302 292.903C89.28 292.467 104.181 289.772 118.181 283.927C121.063 282.722 122.59 281.146 123.49 278.499C128.616 263.488 138.447 251.095 153.906 242.043C167.166 234.271 182.032 230.893 198.175 230.96C214.044 231.026 229.229 233.294 243.024 240.183C257.594 247.451 266.993 258.06 270.878 271.762C276.494 291.613 272.073 309.993 258.062 326.76C256.239 328.942 254.587 331.267 253.198 333.658C250.497 338.317 251.887 342.558 256.888 345.661C261.24 348.366 266.275 349.723 271.504 350.567C287.27 353.12 303.003 352.285 318.723 350.169C334.854 347.996 350.506 344.362 365.384 338.763C373.415 335.745 381.094 332.074 388.977 328.771C394.274 317.072 396.94 304.138 396.94 289.952C396.94 265.414 389.33 244.728 374.144 227.933Z" fill="#F86B01" fill-opacity="0.2"/>
<path d="M188.163 121.003C193.654 121.867 198.734 118.982 199.725 114.437C200.751 109.712 197.481 105.48 192.139 104.626C186.522 103.734 181.407 106.837 180.405 111.742C179.562 115.908 183.162 120.207 188.163 121.003Z" fill="#F86B01" fill-opacity="0.2"/>
<path d="M158.771 264.181C153.155 263.289 148.04 266.392 147.038 271.298C146.195 275.463 149.795 279.762 154.796 280.559C160.287 281.422 165.367 278.538 166.359 273.993C167.384 269.267 164.114 265.035 158.771 264.181Z" fill="#F86B01" fill-opacity="0.2"/>
</svg>
