<svg width="51" height="61" viewBox="0 0 51 61" fill="none" xmlns="http://www.w3.org/2000/svg">
<path d="M47.6201 34.9763C46.0144 32.8446 43.8608 31.2385 41.1652 30.1552C40.2022 30.4581 39.2404 30.761 38.2788 31.0697C37.61 31.2837 36.9514 31.537 36.303 31.8079C35.8368 32.003 35.4987 32.332 35.4113 32.8752C35.3545 33.2217 35.165 33.513 34.8882 33.7386C34.2908 34.225 33.3437 33.9672 33.0363 33.2596C32.7507 32.6014 32.9459 32.0175 33.3801 31.6826C33.6788 31.4526 34.0125 31.4541 34.3549 31.4686C35.3763 31.5108 36.1486 31.0667 36.6979 30.2324C36.9878 29.7926 36.829 29.2524 36.3045 29.053C35.6546 28.8069 34.9771 28.6234 34.2996 28.4691C33.7589 28.3453 33.2359 28.5128 32.7448 28.7472C32.3223 28.9496 31.9056 28.9904 31.5092 28.7079C31.0867 28.4079 30.8434 28.0017 30.8856 27.4673C30.9294 26.9184 31.2732 26.5776 31.7525 26.4015C32.2378 26.2224 32.6851 26.3738 33.0275 26.7568C33.4777 27.2591 34.0081 27.6348 34.6769 27.7396C35.302 27.8372 35.9373 27.875 36.5697 27.9144C36.8771 27.9333 37.0621 27.6944 37.1787 27.46C37.2749 27.2678 37.3331 27.0232 37.3098 26.8135C37.2472 26.2777 37.0811 25.7608 36.7693 25.3152C36.5769 25.0429 36.2739 24.9046 35.9518 24.8085C35.5206 24.6804 35.1884 24.4358 35.0674 23.9713C34.9406 23.4923 35.149 22.9506 35.541 22.6375C35.9752 22.2924 36.4298 22.3274 36.8742 22.5516C37.3405 22.7889 37.5328 23.1952 37.5138 23.7325C37.4643 25.1041 37.9247 26.2704 38.968 27.1921C39.5071 27.6683 40.0914 28.0439 40.7952 28.2332C41.3124 28.373 41.8093 28.3381 42.277 28.1735C43.9614 27.1571 45.366 25.8613 46.4894 24.2829C48.1971 21.8789 49.0538 19.0833 49.0538 15.8959C49.0538 10.973 47.1873 7.09252 43.4456 4.25319C39.7096 1.41967 34.6492 0.00145576 28.2731 0.00145576H27.8462C27.3245 0.586797 26.8088 1.17796 26.3061 1.77932C25.1724 3.13347 24.3506 4.73077 23.9267 6.45187C23.9193 6.48095 23.915 6.50866 23.9077 6.53774C23.8727 6.78239 23.8363 7.01533 23.7926 7.2265C23.4997 8.65194 23.8829 8.83255 25.1244 9.59552C25.8981 10.0702 26.6922 10.5332 27.3901 11.1069C28.8253 12.2878 29.6194 13.8312 29.6995 15.7095C29.7199 16.1988 29.5378 16.5512 29.0278 16.7113C28.2614 16.9545 27.8767 17.5034 27.613 18.2707C26.8539 20.4782 25.3429 22.0347 23.2025 22.9637C22.8397 23.1209 22.6532 23.3175 22.6371 23.7121C22.6007 24.6192 22.5439 25.5264 22.4972 26.4335C22.4914 26.5325 22.4958 26.633 22.4871 26.732C22.4303 27.4411 22.2248 27.5765 21.588 27.2343C20.8027 26.8135 20.0464 26.3374 19.2742 25.8933C19.1576 25.8263 18.9711 25.7259 18.9041 25.771C18.8007 25.8395 18.7322 26.0185 18.722 26.1554C18.6972 26.4947 18.7278 26.8383 18.7089 27.1775C18.6725 27.8386 18.4379 27.9741 17.823 27.709C16.5058 27.1411 15.3212 26.368 14.2546 25.4099C11.9641 23.3525 10.475 20.7825 9.53954 17.8893C9.11696 16.5847 8.74976 15.2436 8.556 13.8909C8.3316 12.3256 8.26457 10.7283 8.24274 9.1441C8.22085 7.53371 8.42343 6.32663 8.34325 4.71767C8.37971 4.69001 8.28497 4.25609 8.32143 4.22843C8.33891 3.07231 8.08971 1.39928 7.96155 0H6.36018C4.3305 0.00145576 2.7656 0.551853 1.66405 1.65264C0.562506 2.75343 0.0146484 4.31725 0.0146484 6.34554V54.9201C0.0146484 56.9469 0.562506 58.5122 1.66405 59.613C2.7656 60.7138 4.3305 61.2642 6.36018 61.2642H12.8558C13.1079 60.0746 13.612 58.933 14.3581 57.8409C15.0604 56.8144 15.9477 55.9684 16.8861 55.1661C17.3057 54.808 17.705 54.4207 18.0765 54.0129C18.2907 53.777 18.4597 53.4887 18.5981 53.199C18.8546 52.6574 18.875 52.0924 18.5049 51.5959C18.0779 51.0236 17.6073 50.4834 17.1454 49.9389C17.0945 49.8792 16.9764 49.8558 16.889 49.8515C15.123 49.7714 13.4022 49.4424 11.7222 48.9094C11.0258 48.6881 10.322 48.4522 9.67793 48.113C8.80663 47.6529 8.32143 46.9015 8.39429 45.8662C8.40154 45.7716 8.40445 45.674 8.42777 45.5823C8.60554 44.8849 8.62011 44.9664 9.19565 44.946C11.1846 44.879 13.0904 44.4655 14.8812 43.5685C15.2498 43.3836 15.445 43.1419 15.5601 42.7357C16.2158 40.4321 17.4733 38.5305 19.4505 37.1414C21.1466 35.9489 23.048 35.4305 25.1127 35.4408C27.1424 35.4509 29.0847 35.799 30.8492 36.8561C32.7128 37.9714 33.9149 39.5993 34.4117 41.7019C35.1301 44.748 34.5647 47.5684 32.7725 50.1412C32.5394 50.4762 32.3281 50.8329 32.1504 51.1998C31.805 51.9147 31.9828 52.5656 32.6224 53.0418C33.1791 53.4567 33.823 53.6649 34.4918 53.7945C36.5085 54.1862 38.5207 54.0581 40.5314 53.7334C42.5947 53.3999 44.5966 52.8423 46.4996 51.9832C47.5268 51.5202 48.5089 50.9567 49.5172 50.4499C50.1947 48.6546 50.5357 46.67 50.5357 44.4931C50.5357 40.7278 49.5623 37.5535 47.6201 34.9763Z" fill="black"/>
<path d="M23.8322 18.5678C24.5345 18.7003 25.1843 18.2577 25.3111 17.5602C25.4422 16.8351 25.0241 16.1857 24.3407 16.0547C23.6224 15.9178 22.9681 16.3939 22.8399 17.1467C22.7321 17.7859 23.1925 18.4455 23.8322 18.5678Z" fill="black"/>
<path d="M20.0731 40.5386C19.3548 40.4017 18.7005 40.8778 18.5723 41.6306C18.4646 42.2698 18.9249 42.9294 19.5646 43.0517C20.2669 43.1842 20.9168 42.7415 21.0436 42.0441C21.1747 41.319 20.7565 40.6696 20.0731 40.5386Z" fill="black"/>
</svg>
