<svg width="79" height="99" viewBox="0 0 79 99" fill="none" xmlns="http://www.w3.org/2000/svg">
<path d="M74.8256 56.5199C72.3148 53.0752 68.9472 50.4799 64.7321 48.7294C63.2262 49.2188 61.7223 49.7082 60.2186 50.207C59.1728 50.5529 58.143 50.9624 57.129 51.4C56.4 51.7153 55.8713 52.2471 55.7346 53.1247C55.6458 53.6847 55.3496 54.1553 54.9167 54.52C53.9826 55.3059 52.5015 54.8894 52.0208 53.7459C51.5742 52.6823 51.8795 51.7388 52.5585 51.1976C53.0256 50.8259 53.5473 50.8282 54.0827 50.8517C55.6799 50.92 56.8876 50.2023 57.7465 48.8541C58.1999 48.1435 57.9516 47.2706 57.1313 46.9482C56.1151 46.5505 55.0557 46.2541 53.9963 46.0047C53.1509 45.8047 52.3329 46.0752 51.5651 46.4542C50.9044 46.7812 50.2528 46.8471 49.633 46.3905C48.9722 45.9059 48.5918 45.2494 48.6579 44.3858C48.7262 43.4988 49.2639 42.9482 50.0135 42.6635C50.7723 42.3742 51.4717 42.6188 52.0071 43.2377C52.7112 44.0494 53.5405 44.6565 54.5863 44.8259C55.5638 44.9835 56.5571 45.0447 57.546 45.1082C58.0267 45.1388 58.3161 44.7529 58.4983 44.3741C58.6487 44.0635 58.7399 43.6682 58.7034 43.3294C58.6055 42.4635 58.3457 41.6282 57.8581 40.9082C57.5574 40.4683 57.0835 40.2447 56.5799 40.0894C55.9056 39.8824 55.3861 39.487 55.1969 38.7365C54.9987 37.9623 55.3245 37.0871 55.9375 36.5811C56.6164 36.0236 57.3273 36.08 58.0222 36.4424C58.7513 36.8259 59.0521 37.4823 59.0224 38.3506C58.9449 40.567 59.665 42.4518 61.2963 43.9412C62.1394 44.7106 63.053 45.3176 64.1535 45.6235C64.9623 45.8494 65.7393 45.7929 66.4706 45.527C69.1045 43.8847 71.3009 41.7906 73.0575 39.24C75.7279 35.3553 77.0675 30.8377 77.0675 25.6871C77.0675 17.7318 74.1489 11.4611 68.2979 6.87294C62.456 2.29412 54.543 0.00235294 44.5726 0.00235294H43.905C43.0893 0.948235 42.2828 1.90353 41.4968 2.8753C39.7241 5.06352 38.4391 7.6447 37.7761 10.4259C37.7646 10.473 37.7579 10.5176 37.7464 10.5647C37.6917 10.96 37.6348 11.3365 37.5665 11.6776C37.1085 13.9812 37.7077 14.2729 39.6489 15.5059C40.8588 16.2729 42.1005 17.0212 43.1919 17.9483C45.4361 19.8565 46.6779 22.3506 46.8032 25.3859C46.835 26.1765 46.5503 26.7459 45.7528 27.0047C44.5544 27.3976 43.9528 28.2847 43.5405 29.5247C42.3534 33.0917 39.9907 35.6071 36.6437 37.1082C36.0764 37.3623 35.7847 37.68 35.7596 38.3176C35.7027 39.7836 35.6138 41.2494 35.5409 42.7153C35.5318 42.8753 35.5387 43.0376 35.525 43.1976C35.4362 44.3436 35.1148 44.5624 34.1192 44.0094C32.8911 43.3294 31.7086 42.56 30.501 41.8424C30.3188 41.7341 30.0271 41.5717 29.9223 41.6447C29.7606 41.7553 29.6534 42.0447 29.6375 42.2659C29.5987 42.8141 29.6466 43.3694 29.617 43.9177C29.5601 44.9859 29.1933 45.2047 28.2317 44.7765C26.172 43.8589 24.3196 42.6094 22.6518 41.0612C19.0702 37.7365 16.7416 33.5836 15.2789 28.9082C14.6181 26.8 14.0439 24.633 13.7409 22.4471C13.39 19.9177 13.2852 17.3365 13.2511 14.7765C13.2168 12.1741 13.5336 10.2235 13.4082 7.62352C13.4653 7.57882 13.3171 6.87765 13.3741 6.83294C13.4015 4.96471 13.0118 2.26118 12.8114 0H10.3073C7.13348 0.00235294 4.68644 0.891765 2.96395 2.67059C1.24145 4.44942 0.384766 6.97647 0.384766 10.2541V88.7483C0.384766 92.0235 1.24145 94.5529 2.96395 96.3318C4.68644 98.1106 7.13348 99 10.3073 99H20.4645C20.8588 97.0777 21.647 95.2329 22.8137 93.4683C23.9118 91.8094 25.2994 90.4424 26.7667 89.1459C27.4229 88.567 28.0472 87.9411 28.6282 87.2824C28.9631 86.9012 29.2274 86.4353 29.4438 85.967C29.8448 85.0918 29.8767 84.1788 29.2981 83.3764C28.6304 82.4518 27.8945 81.5788 27.1723 80.6988C27.0926 80.6024 26.9079 80.5647 26.7712 80.5576C24.0098 80.4283 21.3189 79.8965 18.6919 79.0353C17.6029 78.6777 16.5024 78.2964 15.4953 77.7482C14.1328 77.0047 13.3741 75.7906 13.488 74.1176C13.4994 73.9647 13.5039 73.8071 13.5404 73.6588C13.8184 72.5318 13.8412 72.6635 14.7411 72.6305C17.8512 72.5223 20.8314 71.8541 23.6316 70.4047C24.208 70.1059 24.5133 69.7152 24.6933 69.0588C25.7186 65.3365 27.6849 62.2635 30.7767 60.0188C33.4288 58.0917 36.4022 57.2541 39.6307 57.2706C42.8046 57.2871 45.8417 57.8494 48.6009 59.5577C51.515 61.36 53.3947 63.9905 54.1716 67.3883C55.2949 72.3105 54.4108 76.8682 51.6084 81.0259C51.2439 81.567 50.9135 82.1435 50.6356 82.7364C50.0955 83.8918 50.3735 84.9435 51.3737 85.7129C52.2441 86.3835 53.2511 86.72 54.2969 86.9294C57.4503 87.5623 60.5968 87.3553 63.741 86.8305C66.9673 86.2917 70.0978 85.3906 73.0735 84.0023C74.6797 83.2541 76.2155 82.3436 77.7921 81.5247C78.8516 78.6236 79.3848 75.4165 79.3848 71.8989C79.3848 65.8141 77.8627 60.6847 74.8256 56.5199Z" fill="#F86B01"/>
</svg>
